<svg xmlns="http://www.w3.org/2000/svg" viewBox="0 0 47.05 47.05"><g id="Layer_2" data-name="Layer 2"><g id="OBJECTS"><path d="M23.53,0A23.53,23.53,0,1,0,47.05,23.53,23.52,23.52,0,0,0,23.53,0ZM12.25,34.76l5.57-9a17.53,17.53,0,0,0,3.4,3.41Zm22-14.67a2.59,2.59,0,0,1-2.71.27l-3,3c1.5,2.44,1.86,4.81.69,6a2.62,2.62,0,0,1-1.94.7,9.19,9.19,0,0,1-5.13-2.13l-.13-.09-.38-.31-.15-.13c-.13-.1-.25-.21-.37-.32L21,26.92l-.49-.47c-.18-.18-.36-.37-.53-.56l-.3-.35-.17-.19-.38-.48,0-.06c-2.12-2.8-2.8-5.74-1.45-7.09a2.65,2.65,0,0,1,1.93-.7,8.18,8.18,0,0,1,4.05,1.38l3-3a2.57,2.57,0,0,1,.28-2.71c1.11-1.11,3.66-.36,5.7,1.68s2.78,4.59,1.67,5.7Z"/></g></g></svg>