<svg xmlns="http://www.w3.org/2000/svg" xmlns:xlink="http://www.w3.org/1999/xlink" viewBox="0 0 47.33 47.33"><defs><style>.cls-1{fill:none;}.cls-2{clip-path:url(#clip-path);}</style><clipPath id="clip-path" transform="translate(0 0.05)"><rect class="cls-1" width="47.28" height="47.47"/></clipPath></defs><g id="Layer_2" data-name="Layer 2"><g id="OBJECTS"><g class="cls-2"><path d="M23.66,0A23.67,23.67,0,1,0,47.33,23.62,23.66,23.66,0,0,0,23.66,0Zm0,8.31,14,8.74h-28ZM37.84,30.94h0a2.54,2.54,0,0,1-2.54,2.54H12a2.54,2.54,0,0,1-2.53-2.54V17.55a2,2,0,0,1,0-.43l13.38,8.34.05,0,.05,0,.29.11h0a1.86,1.86,0,0,0,.33,0h0a2,2,0,0,0,.34,0h0l.29-.11.05,0,.05,0L37.8,17.12a3,3,0,0,1,0,.43Z" transform="translate(0 0.05)"/></g></g></g></svg>