<?xml version="1.0" encoding="utf-8"?>
<!-- Generator: Adobe Illustrator 25.3.1, SVG Export Plug-In . SVG Version: 6.00 Build 0)  -->
<svg version="1.1" id="Layer_1" xmlns="http://www.w3.org/2000/svg" xmlns:xlink="http://www.w3.org/1999/xlink" x="0px" y="0px"
	 viewBox="0 0 47.3 47.3" style="enable-background:new 0 0 47.3 47.3;" xml:space="preserve">
<style type="text/css">
	.st0{clip-path:url(#SVGID_2_);}
	.st1{fill:#402E70;}
</style>
<g id="Layer_2_1_">
	<g id="OBJECTS">
		<g>
			<defs>
				<rect id="SVGID_1_" y="0.1" width="47.3" height="47.5"/>
			</defs>
			<use xlink:href="#SVGID_1_"  style="overflow:visible;fill:#FFFFFF;"/>
			<clipPath id="SVGID_2_">
				<use xlink:href="#SVGID_1_"  style="overflow:visible;"/>
			</clipPath>
			<g class="st0">
				<path class="st1" d="M23.7,0.1C10.6,0.1,0,10.6,0,23.7s10.6,23.7,23.7,23.7s23.7-10.6,23.7-23.7c0,0,0,0,0,0
					C47.3,10.6,36.7,0,23.7,0.1z M23.7,8.4l14,8.7h-28L23.7,8.4z M37.8,31L37.8,31c0,1.4-1.1,2.5-2.5,2.5l0,0H12
					c-1.4,0-2.5-1.1-2.5-2.5V17.6c0-0.1,0-0.3,0-0.4l13.4,8.3h0h0l0.3,0.1l0,0c0.1,0,0.2,0,0.3,0l0,0c0.1,0,0.2,0,0.3,0l0,0l0.3-0.1
					h0h0l13.5-8.3c0,0.1,0,0.3,0,0.4L37.8,31z"/>
			</g>
		</g>
	</g>
</g>
</svg>
