<svg xmlns="http://www.w3.org/2000/svg" viewBox="0 0 48 48"><defs><style>.cls-1{fill:#402e70;}.cls-2{fill:#fff;fill-rule:evenodd;}</style></defs><g id="Layer_2" data-name="Layer 2"><g id="Layer_1-2" data-name="Layer 1"><path class="cls-1" d="M0,24A24,24,0,1,1,24,48,24,24,0,0,1,0,24Z"/><path class="cls-2" d="M17.32,14.82a2.84,2.84,0,0,1-3.08,2.83h0A2.83,2.83,0,1,1,14.28,12,2.83,2.83,0,0,1,17.32,14.82ZM17,19.88V36.22H11.52V19.88ZM36.58,36.22V26.85c0-5-2.69-7.36-6.27-7.36a5.41,5.41,0,0,0-4.9,2.7V19.88H20c.07,1.53,0,16.34,0,16.34h5.44V27.09a3.77,3.77,0,0,1,.18-1.32,3,3,0,0,1,2.79-2c2,0,2.76,1.5,2.76,3.7v8.74Z"/></g></g></svg>