<svg xmlns="http://www.w3.org/2000/svg" xmlns:xlink="http://www.w3.org/1999/xlink" viewBox="0 0 47.29 47.29"><defs><style>.cls-1{fill:none;}.cls-2{clip-path:url(#clip-path);}</style><clipPath id="clip-path" transform="translate(0 0.05)"><rect class="cls-1" width="47.24" height="47.43"/></clipPath></defs><g id="Layer_2" data-name="Layer 2"><g id="OBJECTS"><g class="cls-2"><path d="M27.52,17.38a3.81,3.81,0,1,1-3.81-3.8,3.81,3.81,0,0,1,3.81,3.8Z" transform="translate(0 0.05)"/><path d="M23.64,0A23.65,23.65,0,1,0,47.29,23.6,23.65,23.65,0,0,0,23.64,0Zm-.05,10.83h.1a7.37,7.37,0,0,1,7.23,7.34c0,4.87-5.21,9.8-7.28,11.57l-.45-.4h0c-2.29-2-6.81-6.63-6.81-11.17a7.37,7.37,0,0,1,7.22-7.34Zm.16,25.78c-4.36,0-8.78-1.25-8.78-3.64,0-1.68,2.17-2.79,5-3.31.54.55,1.05,1,1.5,1.43-3.05.34-4.84,1.31-4.84,1.88s2.71,2,7.14,2,7.14-1.3,7.14-2-1.87-1.58-5-1.9c.46-.4,1-.89,1.52-1.44,2.89.5,5.15,1.63,5.15,3.34,0,2.39-4.41,3.64-8.77,3.64Z" transform="translate(0 0.05)"/></g></g></g></svg>