<?xml version="1.0" encoding="utf-8"?>
<!-- Generator: Adobe Illustrator 25.3.1, SVG Export Plug-In . SVG Version: 6.00 Build 0)  -->
<svg version="1.1" id="Layer_1" xmlns="http://www.w3.org/2000/svg" xmlns:xlink="http://www.w3.org/1999/xlink" x="0px" y="0px"
	 viewBox="0 0 74.9 74.9" style="enable-background:new 0 0 74.9 74.9;" xml:space="preserve">
<style type="text/css">
	.st0{fill:#402E70;}
	.st1{fill:#FFFFFF;}
</style>
<g id="Layer_2_1_">
	<g id="OBJECTS">
		<path class="st0" d="M21.8,0h31.4c12,0,21.8,9.7,21.8,21.8v31.4c0,12-9.7,21.8-21.8,21.8H21.8C9.7,74.9,0,65.2,0,53.2V21.8
			C0,9.7,9.7,0,21.8,0z"/>
		<path class="st1" d="M34.1,12.6c-12.4,0-22.5,8.7-22.5,19.3c0.1,5,2.2,9.7,5.9,13c-0.8,2.2-1.9,4.3-3.1,6.3
			c3.2-0.4,6.3-1.1,9.3-2.2c1.5,0.7,3.1,1.2,4.7,1.6c-0.1-0.7-0.2-1.5-0.2-2.2c0-9.1,8.5-16.5,19-16.5c3.2,0,6.4,0.7,9.3,2.1
			c0.1-0.7,0.1-1.4,0.1-2.1C56.7,21.3,46.6,12.6,34.1,12.6z M26,28c-1.6,0-2.8-1.3-2.8-2.8s1.3-2.8,2.8-2.8c1.6,0,2.8,1.3,2.8,2.8
			l0,0C28.8,26.7,27.6,28,26,28z M42.2,28c-1.6,0-2.8-1.3-2.8-2.8c0-1.6,1.3-2.8,2.8-2.8c1.6,0,2.8,1.3,2.8,2.8
			C45.1,26.7,43.8,28,42.2,28L42.2,28z"/>
		<path class="st1" d="M63.3,48.5c0-7.6-7.2-13.8-16.1-13.8s-16.1,6.2-16.1,13.8s7.2,13.8,16.1,13.8c2.6,0,5.1-0.5,7.5-1.6
			c2.1,0.8,4.4,1.3,6.6,1.6c-0.9-1.4-1.6-2.9-2.2-4.5C61.7,55.4,63.2,52,63.3,48.5z M40.5,46.9c-1.2,0-2.2-1-2.2-2.1s1-2.2,2.1-2.2
			c1.2,0,2.2,1,2.2,2.1c0,0,0,0,0,0C42.6,45.9,41.7,46.9,40.5,46.9z M52.9,46.9c-1.2,0-2.2-0.9-2.2-2.1s0.9-2.2,2.1-2.2
			s2.2,0.9,2.2,2.1c0,0,0,0,0,0C55,45.9,54.1,46.9,52.9,46.9z"/>
	</g>
</g>
</svg>
