<svg xmlns="http://www.w3.org/2000/svg" viewBox="0 0 74.91 74.91"><defs><style>.cls-1{fill:#242424;}.cls-2{fill:#fff;}</style></defs><g id="Layer_2" data-name="Layer 2"><g id="OBJECTS"><rect class="cls-1" width="74.91" height="74.91" rx="21.75"/><path class="cls-2" d="M34.14,12.62c-12.43,0-22.51,8.66-22.51,19.34a17.89,17.89,0,0,0,5.85,13,36.21,36.21,0,0,1-3.09,6.33,39.72,39.72,0,0,0,9.26-2.23,24.68,24.68,0,0,0,4.74,1.59,14.64,14.64,0,0,1-.18-2.21c0-9.09,8.51-16.49,19-16.49a21,21,0,0,1,9.34,2.15A17,17,0,0,0,56.65,32C56.65,21.28,46.57,12.62,34.14,12.62ZM26,28a2.82,2.82,0,1,1,2.82-2.82A2.82,2.82,0,0,1,26,28Zm16.22,0a2.82,2.82,0,1,1,2.83-2.82A2.82,2.82,0,0,1,42.25,28Z"/><path class="cls-2" d="M63.28,48.45c0-7.64-7.21-13.84-16.11-13.84s-16.1,6.2-16.1,13.84,7.21,13.84,16.1,13.84a18.1,18.1,0,0,0,7.51-1.59,28,28,0,0,0,6.63,1.59,25.22,25.22,0,0,1-2.21-4.53A12.78,12.78,0,0,0,63.28,48.45ZM40.49,46.91a2.16,2.16,0,1,1,2.15-2.16A2.16,2.16,0,0,1,40.49,46.91Zm12.39,0A2.16,2.16,0,1,1,55,44.75,2.16,2.16,0,0,1,52.88,46.91Z"/></g></g></svg>