<svg xmlns="http://www.w3.org/2000/svg" xmlns:xlink="http://www.w3.org/1999/xlink" viewBox="0 0 46.98 46.98"><defs><style>.cls-1{fill:none;}.cls-2{clip-path:url(#clip-path);}</style><clipPath id="clip-path" transform="translate(0 0.05)"><rect class="cls-1" width="46.93" height="47.12"/></clipPath></defs><g id="Layer_2" data-name="Layer 2"><g id="OBJECTS"><path d="M22.47,24.07c3,0,3.72-2.45,3.72-4.5a3.72,3.72,0,0,0-7.43,0c0,2.05,1,4.5,3.71,4.5Z" transform="translate(0 0.05)"/><g class="cls-2"><path d="M23,24.59H22c-2,0-5.08,1.86-5.08,4.16s-.69,4.17,1.34,4.17h8.52c2,0,1.35-1.87,1.35-4.17S25,24.59,23,24.59Z" transform="translate(0 0.05)"/><path d="M23.49,0A23.49,23.49,0,1,0,47,23.44,23.49,23.49,0,0,0,23.49,0ZM33,34v1.63a1.62,1.62,0,0,1-1.62,1.62H15.16A3.25,3.25,0,0,1,11.91,34V13.51a3.26,3.26,0,0,1,3.25-3.25H31.41A1.63,1.63,0,0,1,33,11.89Zm3.25-20.44V35.58a1.62,1.62,0,0,1-1.62,1.62h-.44a3.3,3.3,0,0,0,.44-1.62V11.89a3.34,3.34,0,0,0-.44-1.63h.44a1.63,1.63,0,0,1,1.62,1.63Z" transform="translate(0 0.05)"/></g></g></g></svg>