<?xml version="1.0" encoding="utf-8"?>
<!-- Generator: Adobe Illustrator 25.3.1, SVG Export Plug-In . SVG Version: 6.00 Build 0)  -->
<svg version="1.1" id="Layer_1" xmlns="http://www.w3.org/2000/svg" xmlns:xlink="http://www.w3.org/1999/xlink" x="0px" y="0px"
	 viewBox="0 0 47.3 47.3" style="enable-background:new 0 0 47.3 47.3;" xml:space="preserve">
<style type="text/css">
	.st0{clip-path:url(#SVGID_2_);}
	.st1{fill:#402E70;}
</style>
<g id="Layer_2_1_">
	<g id="OBJECTS">
		<g>
			<defs>
				<rect id="SVGID_1_" y="0.1" width="47.2" height="47.4"/>
			</defs>
			<use xlink:href="#SVGID_1_"  style="overflow:visible;fill:#FFFFFF;"/>
			<clipPath id="SVGID_2_">
				<use xlink:href="#SVGID_1_"  style="overflow:visible;"/>
			</clipPath>
			<g class="st0">
				<path class="st1" d="M23.6,0.1C10.6,0.1,0,10.6,0,23.7s10.6,23.6,23.7,23.6s23.6-10.6,23.6-23.7c0,0,0,0,0,0
					C47.3,10.6,36.7,0,23.6,0.1z M33.2,34.3v1.6c0,0.9-0.7,1.6-1.6,1.6c0,0,0,0,0,0H15.3c-1.8,0-3.3-1.5-3.3-3.3c0,0,0,0,0,0V13.7
					c0-1.8,1.5-3.3,3.3-3.3h16.4c0.9,0,1.6,0.7,1.6,1.6c0,0,0,0,0,0V34.3z M36.5,13.7v22.2c0,0.9-0.7,1.6-1.6,1.6c0,0,0,0,0,0h-0.5
					c0.3-0.5,0.4-1.1,0.5-1.6V12.1c0-0.6-0.2-1.1-0.5-1.6h0.5c0.9,0,1.6,0.7,1.6,1.6c0,0,0,0,0,0V13.7z"/>
			</g>
		</g>
		<path class="st1" d="M27.7,26c0,0-0.6-0.7-1.3-0.2c-0.5,0.4-1.4,1.2-1.6,1.4c-0.8-0.5-1.7-1-2.4-1.6c-1.1-0.9-2-2-2.7-3.2
			l-0.4-0.7c0.1-0.1,1.1-1.1,1.5-1.7c0.3-0.4,0.2-1-0.2-1.3c0,0-2.1-2.1-2.6-2.5c-0.3-0.2-0.7-0.3-1-0.2c-1,0.6-2,1.2-2.1,3.9
			c0,2.5,1.9,5.1,4,7.1c2.1,2.3,4.9,4.5,7.7,4.5s3.2-1.1,3.9-2.1c0.1-0.3,0.1-0.7-0.2-1C29.8,28.2,27.7,26.1,27.7,26L27.7,26z"/>
	</g>
</g>
</svg>
