<svg xmlns="http://www.w3.org/2000/svg" xmlns:xlink="http://www.w3.org/1999/xlink" viewBox="0 0 47.29 47.29"><defs><style>.cls-1{fill:none;}.cls-2{clip-path:url(#clip-path);}</style><clipPath id="clip-path" transform="translate(0 0.05)"><rect class="cls-1" width="47.24" height="47.43"/></clipPath></defs><g id="Layer_2" data-name="Layer 2"><g id="OBJECTS"><g class="cls-2"><path d="M23.64,0A23.65,23.65,0,1,0,47.29,23.6,23.65,23.65,0,0,0,23.64,0Zm9.61,34.23v1.63a1.63,1.63,0,0,1-1.63,1.64H15.26A3.27,3.27,0,0,1,12,34.18V13.6a3.28,3.28,0,0,1,3.27-3.27H31.62A1.63,1.63,0,0,1,33.25,12ZM36.52,13.6V35.81a1.63,1.63,0,0,1-1.63,1.64h-.45a3.25,3.25,0,0,0,.45-1.64V12a3.25,3.25,0,0,0-.45-1.64h.45A1.63,1.63,0,0,1,36.52,12Z" transform="translate(0 0.05)"/></g><path d="M27.68,26s-.62-.74-1.3-.23c-.51.38-1.42,1.23-1.64,1.44a18.55,18.55,0,0,1-2.43-1.56,12.7,12.7,0,0,1-2.71-3.24l-.35-.66c.12-.13,1.06-1.13,1.46-1.67a1,1,0,0,0-.22-1.3s-2.08-2.08-2.56-2.49a1,1,0,0,0-1-.19c-1,.65-2,1.21-2.09,3.89,0,2.52,1.91,5.12,4,7.13,2.07,2.27,4.91,4.54,7.66,4.54s3.25-1.09,3.89-2.09a1,1,0,0,0-.18-1c-.41-.47-2.49-2.55-2.49-2.55Z" transform="translate(0 0.05)"/></g></g></svg>