<?xml version="1.0" encoding="utf-8"?>
<!-- Generator: Adobe Illustrator 25.3.1, SVG Export Plug-In . SVG Version: 6.00 Build 0)  -->
<svg version="1.1" id="Layer_1" xmlns="http://www.w3.org/2000/svg" xmlns:xlink="http://www.w3.org/1999/xlink" x="0px" y="0px"
	 viewBox="0 0 47.3 47.3" style="enable-background:new 0 0 47.3 47.3;" xml:space="preserve">
<style type="text/css">
	.st0{fill:#402E70;}
</style>
<g id="Layer_2_1_">
	<g id="OBJECTS">
		<path class="st0" d="M32.2,25.9c0.3,1-2.6,0.7-3.3,1.7s-2.4,0.3-2.8,0.1s-1.9,0.4-1.8-0.6s1.1-1.1,2.1-1.6s2.4-1.9,1.7-2.1
			c-2-0.6-3.7-2.1-4.5-4c-0.2,0-0.1-2.2-1-2.3c-0.9,0.1-1.7,0.1-2.6,0c-1.3-0.2-1-1.1-1.2-2.8s0.5-1.2,0.9-1.8
			c0-0.1,0.1-0.1,0.1-0.1c-4.8,1.6-8,6.1-8,11.2l0,0c0.9,0,2.4,0.2,2.5,0.8c0.1,0.8,0,1.8,0.7,2.1s0.9-1.2,1.5-0.8
			c0.6,0.4,2.2,0.8,2.2,1.5s-0.3,1.9,0,2c0.6,0.5,1.1,1.2,1.5,1.8c0,0.2,0.4,1.2,0.3,1.6c-0.3,0.7-0.7,1.3-1.2,1.8
			c6.1,2.3,12.9-0.8,15.2-6.9c1.2-3.1,1-6.5-0.5-9.5c0,0.9,0.1,1.8,0.3,2.6C35.6,22.5,31.6,23.6,32.2,25.9L32.2,25.9z"/>
		<path class="st0" d="M23.6,0C10.6,0,0,10.6,0,23.6s10.6,23.6,23.6,23.6s23.6-10.6,23.6-23.6S36.7,0,23.6,0C23.6,0,23.6,0,23.6,0z
			 M23.6,37.9c-7.9,0-14.2-6.4-14.2-14.3S15.8,9.4,23.6,9.4s14.2,6.4,14.2,14.2C37.9,31.5,31.5,37.9,23.6,37.9z"/>
	</g>
</g>
</svg>
