<svg xmlns="http://www.w3.org/2000/svg" viewBox="0 0 47.26 47.26"><g id="Layer_2" data-name="Layer 2"><g id="OBJECTS"><path d="M32.23,25.94c.26,1-2.63.71-3.34,1.69s-2.43.32-2.83.14-1.93.43-1.8-.63,1.07-1.13,2.07-1.57,2.44-1.89,1.73-2.08a7,7,0,0,1-4.48-4c-.2,0-.15-2.22-1-2.28a12.39,12.39,0,0,1-2.6,0c-1.27-.25-1-1.07-1.2-2.82s.53-1.19.93-1.75a.81.81,0,0,1,.12-.14,11.82,11.82,0,0,0-8,11.16v0c.86.05,2.44.23,2.51.83.1.81,0,1.84.71,2.14s.92-1.22,1.54-.82,2.24.81,2.24,1.53-.3,1.85,0,2.05a7.88,7.88,0,0,1,1.54,1.84c0,.2.43,1.24.3,1.64a5.77,5.77,0,0,1-1.17,1.82A11.8,11.8,0,0,0,34.14,18.28a8.36,8.36,0,0,0,.29,2.65c1.15,1.57-2.8,2.64-2.2,5Z"/><path d="M23.63,0A23.63,23.63,0,1,0,47.26,23.63,23.63,23.63,0,0,0,23.63,0Zm0,37.88A14.25,14.25,0,1,1,37.88,23.63,14.26,14.26,0,0,1,23.63,37.88Z"/></g></g></svg>